<svg width="434" height="280" viewBox="0 0 434 280" fill="none" xmlns="http://www.w3.org/2000/svg">
<path d="M88.3392 237.304C97.6872 260.115 112.929 264.863 123.646 260.115C144.371 250.933 198.207 240.673 253.499 264.789C326.73 296.731 342.311 248.54 318.94 199.793C295.568 151.047 287.646 101.751 314.589 74.5919C341.532 47.4326 306.275 4.9458 243.661 49.1717C203.197 77.752 173.502 71.3879 157.555 63.3084C142.526 55.6938 125.812 47.733 110.153 53.9488C91.1518 61.4913 83.6648 77.8437 112.574 114.375C153.541 166.144 67.3844 186.173 88.3392 237.304Z" fill="#F5F5F6"/>
<path d="M157.51 121.864H276.038V213.02C276.038 213.205 275.965 213.383 275.833 213.514C275.702 213.646 275.524 213.72 275.338 213.72H158.21C158.025 213.72 157.847 213.646 157.715 213.514C157.584 213.383 157.51 213.205 157.51 213.02V121.864Z" fill="#C9CBCF"/>
<path d="M246.304 86.1428H191.19L157.51 121.864H276.038L246.304 86.1428Z" fill="#B2B3B5"/>
<path d="M168.737 71.8541L191.19 86.1428L157.51 121.864L131.995 102.473L168.737 71.8541Z" fill="#DFDFDF"/>
<path d="M268.757 71.8541L246.303 86.1428L276.038 121.864L305.499 102.473L268.757 71.8541Z" fill="#DFDFDF"/>
<path d="M205.67 72.5847C206.304 72.2842 206.797 71.7505 207.046 71.0951C207.295 70.4397 207.282 69.7133 207.008 69.0677L196.907 45.2498C196.764 44.9124 196.554 44.6075 196.29 44.3533C196.026 44.0991 195.714 43.9009 195.371 43.7706C195.029 43.6403 194.663 43.5806 194.297 43.5952C193.931 43.6097 193.571 43.6981 193.24 43.8551L191.294 44.7779C190.963 44.9349 190.667 45.1572 190.424 45.4315C190.181 45.7058 189.996 46.0264 189.88 46.374C189.765 46.7216 189.72 47.0891 189.75 47.4544C189.78 47.8196 189.883 48.175 190.054 48.4993L202.1 71.3944C202.427 72.015 202.981 72.4853 203.646 72.7072C204.311 72.929 205.036 72.8851 205.67 72.5847Z" fill="#B2B3B5"/>
<path d="M218.334 70.2757C218.792 70.243 219.221 70.0344 219.529 69.6934C219.837 69.3525 220.002 68.9055 219.989 68.446L219.49 51.4897C219.483 51.2496 219.427 51.0133 219.326 50.7951C219.226 50.577 219.082 50.3814 218.904 50.2203C218.725 50.0591 218.517 49.9356 218.289 49.8573C218.062 49.7789 217.822 49.7473 217.582 49.7644L216.173 49.8648C215.933 49.8818 215.7 49.9471 215.486 50.0568C215.272 50.1664 215.083 50.3182 214.929 50.5029C214.776 50.6875 214.661 50.9014 214.592 51.1315C214.524 51.3616 214.502 51.6033 214.529 51.842L216.437 68.698C216.488 69.155 216.714 69.5743 217.068 69.8683C217.422 70.1623 217.875 70.3083 218.334 70.2757Z" fill="#B2B3B5"/>
<path d="M228.11 76.5438C229.372 77.2731 231.142 76.6039 232.124 75.0265L249.563 47.0191C250.605 45.3459 250.358 43.3067 249.021 42.5332L247.156 41.4552C245.818 40.6816 243.927 41.4849 242.997 43.2224L227.423 72.3077C226.546 73.9458 226.849 75.8144 228.11 76.5438Z" fill="#B2B3B5"/>
<path d="M358.687 153.373V243.933L429 213.563L428.665 123.33L358.687 153.373Z" fill="#B2B3B5"/>
<path d="M358.687 153.427V243.987L288.716 214.667V123.62L358.687 153.427Z" fill="#C9CBCF"/>
<path d="M358.688 153.373L288.375 123.923L358.135 93L429 123.187L358.688 153.373Z" fill="#DFDFDF"/>
<path d="M402.495 111.896L332.451 142.384L331.814 164.601L312.217 156.515L312.809 134.157L384.926 104.412L402.495 111.896Z" fill="#B2B3B5"/>
<path d="M336.439 185.919C335.329 185.919 334.429 184.276 334.429 182.25C334.429 180.224 335.329 178.581 336.439 178.581C337.549 178.581 338.449 180.224 338.449 182.25C338.449 184.276 337.549 185.919 336.439 185.919Z" fill="white"/>
<path d="M304.056 172.725C302.946 172.725 302.046 171.083 302.046 169.056C302.046 167.03 302.946 165.387 304.056 165.387C305.166 165.387 306.066 167.03 306.066 169.056C306.066 171.083 305.166 172.725 304.056 172.725Z" fill="white"/>
<path d="M324.791 205.288L326.097 204.781C323.205 197.335 319.578 193.234 315.318 192.59C311.242 191.974 307.809 194.781 306.563 196.352L307.66 197.222C308.522 196.136 311.538 193.435 315.108 193.974C318.784 194.529 322.133 198.442 324.791 205.288Z" fill="white"/>
<path d="M75.3125 153.373V243.933L5 213.563L5.33544 123.33L75.3125 153.373Z" fill="#B2B3B5"/>
<path d="M75.3134 153.427V243.987L145.284 214.667V123.62L75.3134 153.427Z" fill="#C9CBCF"/>
<path d="M75.3125 153.373L145.625 123.923L75.8646 93L5 123.187L75.3125 153.373Z" fill="#DFDFDF"/>
<path d="M31.5052 111.896L101.549 142.384L102.186 164.601L121.783 156.515L121.191 134.157L49.0742 104.412L31.5052 111.896Z" fill="#B2B3B5"/>
<path d="M97.5607 185.919C98.6709 185.919 99.5708 184.276 99.5708 182.25C99.5708 180.224 98.6709 178.581 97.5607 178.581C96.4506 178.581 95.5506 180.224 95.5506 182.25C95.5506 184.276 96.4506 185.919 97.5607 185.919Z" fill="white"/>
<path d="M129.944 172.725C131.054 172.725 131.954 171.083 131.954 169.056C131.954 167.03 131.054 165.387 129.944 165.387C128.834 165.387 127.934 167.03 127.934 169.056C127.934 171.083 128.834 172.725 129.944 172.725Z" fill="white"/>
<path d="M109.209 205.288L107.903 204.781C110.795 197.335 114.422 193.234 118.682 192.59C122.758 191.974 126.191 194.781 127.437 196.352L126.34 197.222C125.478 196.136 122.462 193.435 118.892 193.974C115.216 194.529 111.867 198.442 109.209 205.288Z" fill="white"/>
</svg>
