<svg width="100" height="100" viewBox="0 0 100 100" fill="none" xmlns="http://www.w3.org/2000/svg">
<rect width="100" height="100" rx="20" fill="#A348E3"/>
<path d="M57.92 69.4C58.4747 70.2533 59.328 71.1067 60.48 71.96C61.632 72.856 62.976 73.688 64.512 74.456C66.048 75.224 67.6907 75.8853 69.44 76.44C71.1893 77.0373 72.9813 77.5067 74.816 77.848C76.6933 78.1893 78.4853 78.36 80.192 78.36L80.64 79.64C79.0613 79.9387 77.44 80.1733 75.776 80.344C74.1547 80.5147 72.3627 80.6 70.4 80.6C67.1573 80.6 64.064 80.2587 61.12 79.576C58.2187 78.936 55.4667 77.912 52.864 76.504C50.304 75.096 47.9147 73.2827 45.696 71.064L57.92 69.4ZM49.408 71.704C46.08 71.704 43.0293 71.1493 40.256 70.04C37.4827 68.888 35.072 67.3307 33.024 65.368C30.976 63.3627 29.376 61.0373 28.224 58.392C27.1147 55.7467 26.56 52.9307 26.56 49.944C26.56 46.7013 27.1147 43.7147 28.224 40.984C29.376 38.2107 30.976 35.8 33.024 33.752C35.072 31.704 37.4827 30.1253 40.256 29.016C43.0293 27.864 46.08 27.288 49.408 27.288C52.736 27.288 55.808 27.864 58.624 29.016C61.44 30.1253 63.872 31.6827 65.92 33.688C67.968 35.6933 69.5467 38.0187 70.656 40.664C71.808 43.2667 72.384 46.0827 72.384 49.112C72.384 52.3547 71.808 55.3413 70.656 58.072C69.5467 60.8027 67.968 63.192 65.92 65.24C63.872 67.288 61.44 68.888 58.624 70.04C55.808 71.1493 52.736 71.704 49.408 71.704ZM49.408 69.464C52.096 69.464 54.4213 68.632 56.384 66.968C58.3467 65.304 59.8613 62.9573 60.928 59.928C62.0373 56.856 62.592 53.272 62.592 49.176C62.592 45.2933 62.0373 41.88 60.928 38.936C59.8613 35.992 58.3467 33.688 56.384 32.024C54.4213 30.36 52.096 29.528 49.408 29.528C46.8053 29.528 44.5227 30.36 42.56 32.024C40.5973 33.688 39.0613 36.056 37.952 39.128C36.8853 42.1573 36.352 45.7627 36.352 49.944C36.352 52.8027 36.6507 55.4267 37.248 57.816C37.888 60.2053 38.784 62.2747 39.936 64.024C41.088 65.7733 42.4533 67.1173 44.032 68.056C45.6533 68.9947 47.4453 69.464 49.408 69.464Z" fill="white"/>
</svg>
