<svg width="412" height="100" viewBox="0 0 412 100" fill="none" xmlns="http://www.w3.org/2000/svg">
<rect width="100" height="100" rx="20" fill="#A348E3"/>
<path d="M57.92 69.4C58.4747 70.2533 59.328 71.1067 60.48 71.96C61.632 72.856 62.976 73.688 64.512 74.456C66.048 75.224 67.6907 75.8853 69.44 76.44C71.1893 77.0373 72.9813 77.5067 74.816 77.848C76.6933 78.1893 78.4853 78.36 80.192 78.36L80.64 79.64C79.0613 79.9387 77.44 80.1733 75.776 80.344C74.1547 80.5147 72.3627 80.6 70.4 80.6C67.1573 80.6 64.064 80.2587 61.12 79.576C58.2187 78.936 55.4667 77.912 52.864 76.504C50.304 75.096 47.9147 73.2827 45.696 71.064L57.92 69.4ZM49.408 71.704C46.08 71.704 43.0293 71.1493 40.256 70.04C37.4827 68.888 35.072 67.3307 33.024 65.368C30.976 63.3627 29.376 61.0373 28.224 58.392C27.1147 55.7467 26.56 52.9307 26.56 49.944C26.56 46.7013 27.1147 43.7147 28.224 40.984C29.376 38.2107 30.976 35.8 33.024 33.752C35.072 31.704 37.4827 30.1253 40.256 29.016C43.0293 27.864 46.08 27.288 49.408 27.288C52.736 27.288 55.808 27.864 58.624 29.016C61.44 30.1253 63.872 31.6827 65.92 33.688C67.968 35.6933 69.5467 38.0187 70.656 40.664C71.808 43.2667 72.384 46.0827 72.384 49.112C72.384 52.3547 71.808 55.3413 70.656 58.072C69.5467 60.8027 67.968 63.192 65.92 65.24C63.872 67.288 61.44 68.888 58.624 70.04C55.808 71.1493 52.736 71.704 49.408 71.704ZM49.408 69.464C52.096 69.464 54.4213 68.632 56.384 66.968C58.3467 65.304 59.8613 62.9573 60.928 59.928C62.0373 56.856 62.592 53.272 62.592 49.176C62.592 45.2933 62.0373 41.88 60.928 38.936C59.8613 35.992 58.3467 33.688 56.384 32.024C54.4213 30.36 52.096 29.528 49.408 29.528C46.8053 29.528 44.5227 30.36 42.56 32.024C40.5973 33.688 39.0613 36.056 37.952 39.128C36.8853 42.1573 36.352 45.7627 36.352 49.944C36.352 52.8027 36.6507 55.4267 37.248 57.816C37.888 60.2053 38.784 62.2747 39.936 64.024C41.088 65.7733 42.4533 67.1173 44.032 68.056C45.6533 68.9947 47.4453 69.464 49.408 69.464Z" fill="white"/>
<path d="M160.219 52.0938C160.219 55.4896 159.812 58.6042 159 61.4375C158.208 64.25 156.979 66.6875 155.312 68.75C153.646 70.8125 151.531 72.4271 148.969 73.5938L159.969 85.875H147.562L139.188 75.625C139.042 75.625 138.917 75.625 138.812 75.625C138.708 75.625 138.594 75.625 138.469 75.625C134.74 75.625 131.51 75.0729 128.781 73.9688C126.052 72.8438 123.792 71.2396 122 69.1562C120.229 67.0729 118.906 64.5833 118.031 61.6875C117.156 58.7917 116.719 55.5729 116.719 52.0312C116.719 47.3021 117.49 43.1875 119.031 39.6875C120.594 36.1667 122.99 33.4375 126.219 31.5C129.448 29.5625 133.552 28.5938 138.531 28.5938C143.49 28.5938 147.562 29.5625 150.75 31.5C153.958 33.4375 156.333 36.1667 157.875 39.6875C159.438 43.2083 160.219 47.3438 160.219 52.0938ZM126.875 52.0938C126.875 55.2812 127.271 58.0312 128.062 60.3438C128.875 62.6354 130.135 64.4062 131.844 65.6562C133.552 66.8854 135.76 67.5 138.469 67.5C141.219 67.5 143.448 66.8854 145.156 65.6562C146.865 64.4062 148.104 62.6354 148.875 60.3438C149.667 58.0312 150.062 55.2812 150.062 52.0938C150.062 47.3021 149.167 43.5312 147.375 40.7812C145.583 38.0312 142.635 36.6562 138.531 36.6562C135.802 36.6562 133.573 37.2812 131.844 38.5312C130.135 39.7604 128.875 41.5312 128.062 43.8438C127.271 46.1354 126.875 48.8854 126.875 52.0938ZM206.875 29.3125V58.875C206.875 62.0208 206.177 64.8646 204.781 67.4062C203.406 69.9271 201.312 71.9271 198.5 73.4062C195.708 74.8854 192.188 75.625 187.938 75.625C181.896 75.625 177.292 74.0833 174.125 71C170.958 67.9167 169.375 63.8333 169.375 58.75V29.3125H179.031V57.2812C179.031 61.0521 179.802 63.6979 181.344 65.2188C182.885 66.7396 185.167 67.5 188.188 67.5C190.312 67.5 192.031 67.1354 193.344 66.4062C194.677 65.6771 195.656 64.5521 196.281 63.0312C196.906 61.5104 197.219 59.5729 197.219 57.2188V29.3125H206.875ZM218.062 75V29.3125H227.75V75H218.062ZM269.031 75H235.031V68.7188L256.938 37.3125H235.625V29.3125H268.438V35.5625L246.562 67H269.031V75ZM320.906 75L317.594 64.125H300.938L297.625 75H287.188L303.312 29.125H315.156L331.344 75H320.906ZM315.281 56L311.969 45.375C311.76 44.6667 311.479 43.7604 311.125 42.6562C310.792 41.5312 310.448 40.3958 310.094 39.25C309.76 38.0833 309.49 37.0729 309.281 36.2188C309.073 37.0729 308.781 38.1354 308.406 39.4062C308.052 40.6562 307.708 41.8438 307.375 42.9688C307.042 44.0938 306.802 44.8958 306.656 45.375L303.375 56H315.281ZM351.719 29.3125C357.615 29.3125 361.917 30.5833 364.625 33.125C367.333 35.6458 368.688 39.125 368.688 43.5625C368.688 45.5625 368.385 47.4792 367.781 49.3125C367.177 51.125 366.188 52.7396 364.812 54.1562C363.458 55.5729 361.646 56.6979 359.375 57.5312C357.104 58.3438 354.302 58.75 350.969 58.75H346.812V75H337.125V29.3125H351.719ZM351.219 37.25H346.812V50.8125H350C351.812 50.8125 353.385 50.5729 354.719 50.0938C356.052 49.6146 357.083 48.8646 357.812 47.8438C358.542 46.8229 358.906 45.5104 358.906 43.9062C358.906 41.6562 358.281 39.9896 357.031 38.9062C355.781 37.8021 353.844 37.25 351.219 37.25ZM391.906 29.3125C397.802 29.3125 402.104 30.5833 404.812 33.125C407.521 35.6458 408.875 39.125 408.875 43.5625C408.875 45.5625 408.573 47.4792 407.969 49.3125C407.365 51.125 406.375 52.7396 405 54.1562C403.646 55.5729 401.833 56.6979 399.562 57.5312C397.292 58.3438 394.49 58.75 391.156 58.75H387V75H377.312V29.3125H391.906ZM391.406 37.25H387V50.8125H390.188C392 50.8125 393.573 50.5729 394.906 50.0938C396.24 49.6146 397.271 48.8646 398 47.8438C398.729 46.8229 399.094 45.5104 399.094 43.9062C399.094 41.6562 398.469 39.9896 397.219 38.9062C395.969 37.8021 394.031 37.25 391.406 37.25Z" fill="#2B0943"/>
</svg>
